<svg xmlns="http://www.w3.org/2000/svg" viewBox="0 0 1024 768" role="img" aria-label="AI Game Design Studio mission finale">
  <defs>
    <linearGradient id="sky" x1="0" y1="0" x2="1" y2="1">
      <stop offset="0" stop-color="#171c24"/>
      <stop offset="0.55" stop-color="#20291f"/>
      <stop offset="1" stop-color="#3b2431"/>
    </linearGradient>
    <linearGradient id="heat" x1="0" y1="0" x2="1" y2="0">
      <stop offset="0" stop-color="#2de2e6"/>
      <stop offset="0.48" stop-color="#f6d365"/>
      <stop offset="1" stop-color="#ff6b6b"/>
    </linearGradient>
    <filter id="softShadow" x="-20%" y="-20%" width="140%" height="140%">
      <feDropShadow dx="0" dy="18" stdDeviation="18" flood-color="#000000" flood-opacity="0.36"/>
    </filter>
  </defs>

  <rect width="1024" height="768" fill="#0c0f13"/>
  <rect x="32" y="28" width="960" height="712" rx="28" fill="url(#sky)" stroke="#f3dfb1" stroke-opacity="0.32"/>

  <g opacity="0.18" stroke="#f3dfb1" stroke-width="1">
    <path d="M96 92H928"/>
    <path d="M96 676H928"/>
    <path d="M104 96V672"/>
    <path d="M920 96V672"/>
    <path d="M160 96V672"/>
    <path d="M224 96V672"/>
    <path d="M288 96V672"/>
    <path d="M352 96V672"/>
    <path d="M416 96V672"/>
    <path d="M480 96V672"/>
    <path d="M544 96V672"/>
    <path d="M608 96V672"/>
    <path d="M672 96V672"/>
    <path d="M736 96V672"/>
    <path d="M800 96V672"/>
    <path d="M864 96V672"/>
    <path d="M96 160H928"/>
    <path d="M96 224H928"/>
    <path d="M96 288H928"/>
    <path d="M96 352H928"/>
    <path d="M96 416H928"/>
    <path d="M96 480H928"/>
    <path d="M96 544H928"/>
    <path d="M96 608H928"/>
  </g>

  <g filter="url(#softShadow)">
    <rect x="86" y="86" width="560" height="390" rx="20" fill="#11161d" stroke="#f3dfb1" stroke-opacity="0.42"/>
    <rect x="110" y="122" width="512" height="300" rx="14" fill="#1b2830" stroke="#2de2e6" stroke-opacity="0.34"/>
    <path d="M110 356C178 304 254 294 338 326C424 359 499 341 622 278V422H110Z" fill="#234633"/>
    <path d="M110 302C189 262 270 252 353 282C451 318 535 291 622 229V422H110Z" fill="#315b48"/>
    <path d="M128 396C178 359 246 350 332 366C429 384 512 365 604 316" fill="none" stroke="#f6d365" stroke-width="8" stroke-linecap="round" stroke-dasharray="1 18"/>
    <rect x="142" y="148" width="118" height="30" rx="15" fill="#0d1117" stroke="#f3dfb1" stroke-opacity="0.28"/>
    <text x="160" y="168" fill="#f3dfb1" font-family="Inter, Arial, sans-serif" font-size="14" font-weight="700">GAMEPLAY VIEWPORT</text>
    <circle cx="234" cy="357" r="18" fill="#2de2e6"/>
    <path d="M234 339L249 370H219Z" fill="#071014"/>
    <rect x="488" y="164" width="92" height="32" rx="16" fill="#ff6b6b"/>
    <text x="505" y="185" fill="#12090a" font-family="Inter, Arial, sans-serif" font-size="13" font-weight="800">BOSS</text>
  </g>

  <g filter="url(#softShadow)">
    <rect x="680" y="102" width="246" height="238" rx="20" fill="#11161d" stroke="#f3dfb1" stroke-opacity="0.4"/>
    <text x="706" y="144" fill="#f3dfb1" font-family="Inter, Arial, sans-serif" font-size="18" font-weight="800">PLAYER HUD</text>
    <rect x="706" y="170" width="170" height="14" rx="7" fill="#352327"/>
    <rect x="706" y="170" width="128" height="14" rx="7" fill="#ff6b6b"/>
    <rect x="706" y="204" width="170" height="14" rx="7" fill="#1c3030"/>
    <rect x="706" y="204" width="146" height="14" rx="7" fill="#2de2e6"/>
    <rect x="706" y="238" width="170" height="14" rx="7" fill="#3c3421"/>
    <rect x="706" y="238" width="104" height="14" rx="7" fill="#f6d365"/>
    <g fill="#0d1117" stroke="#f3dfb1" stroke-opacity="0.35">
      <rect x="706" y="276" width="36" height="36" rx="8"/>
      <rect x="754" y="276" width="36" height="36" rx="8"/>
      <rect x="802" y="276" width="36" height="36" rx="8"/>
      <rect x="850" y="276" width="36" height="36" rx="8"/>
    </g>
  </g>

  <g filter="url(#softShadow)">
    <rect x="690" y="376" width="246" height="236" rx="20" fill="#11161d" stroke="#f3dfb1" stroke-opacity="0.4"/>
    <text x="716" y="418" fill="#f3dfb1" font-family="Inter, Arial, sans-serif" font-size="18" font-weight="800">NODE GRAPH</text>
    <g stroke="#2de2e6" stroke-width="3" stroke-opacity="0.7" fill="none">
      <path d="M754 470C790 455 810 455 848 470"/>
      <path d="M754 530C790 514 810 514 848 530"/>
      <path d="M754 470V530"/>
      <path d="M848 470V530"/>
    </g>
    <g fill="#18222b" stroke="#f3dfb1" stroke-opacity="0.45">
      <rect x="716" y="448" width="78" height="44" rx="12"/>
      <rect x="812" y="448" width="78" height="44" rx="12"/>
      <rect x="716" y="508" width="78" height="44" rx="12"/>
      <rect x="812" y="508" width="78" height="44" rx="12"/>
    </g>
    <g fill="#f3dfb1" font-family="Inter, Arial, sans-serif" font-size="11" font-weight="700">
      <text x="735" y="474">QUEST</text>
      <text x="831" y="474">EVENT</text>
      <text x="736" y="534">LOOT</text>
      <text x="832" y="534">BOSS</text>
    </g>
  </g>

  <g filter="url(#softShadow)">
    <rect x="110" y="520" width="492" height="114" rx="20" fill="#11161d" stroke="#f3dfb1" stroke-opacity="0.4"/>
    <text x="138" y="560" fill="#f3dfb1" font-family="Inter, Arial, sans-serif" font-size="18" font-weight="800">MISSION LOOP</text>
    <rect x="138" y="584" width="420" height="12" rx="6" fill="#262c35"/>
    <rect x="138" y="584" width="320" height="12" rx="6" fill="url(#heat)"/>
    <g fill="#f3dfb1" font-family="Inter, Arial, sans-serif" font-size="13" font-weight="700">
      <text x="138" y="620">EXPLORE</text>
      <text x="248" y="620">FIGHT</text>
      <text x="344" y="620">LOOT</text>
      <text x="438" y="620">UPGRADE</text>
    </g>
  </g>

  <g font-family="Inter, Arial, sans-serif" fill="#f3dfb1">
    <text x="92" y="720" font-size="18" font-weight="900" letter-spacing="4">AI GAME DESIGN STUDIO</text>
    <text x="708" y="720" font-size="14" font-weight="700" opacity="0.72">GAME WORLDS / SYSTEMS / PLAYABLE CONCEPTS</text>
  </g>
</svg>
